<svg width="32" height="14" viewBox="0 0 32 14" fill="none" xmlns="http://www.w3.org/2000/svg">
<path d="M5.88998 2.19C5.70068 2.42336 5.46124 2.61107 5.18943 2.73919C4.91763 2.8673 4.62045 2.93252 4.31998 2.93C4.2851 2.33418 4.48628 1.74859 4.87998 1.3C5.27732 0.842088 5.83625 0.555454 6.43998 0.5C6.46387 0.804019 6.4276 1.10977 6.33322 1.39975C6.23885 1.68974 6.08823 1.95828 5.88998 2.19ZM6.43998 3.05C5.56998 3 4.82998 3.54 4.43998 3.54C4.04998 3.54 3.43998 3.08 2.69998 3.09C2.25 3.09902 1.8102 3.22559 1.42427 3.45715C1.03833 3.68871 0.71969 4.0172 0.499977 4.41C-0.430023 6.02 0.259977 8.41 1.16998 9.72C1.60998 10.36 2.16998 11.08 2.83998 11.05C3.50998 11.02 3.75998 10.62 4.55998 10.62C5.35998 10.62 5.55998 11.05 6.28998 11.04C7.01998 11.03 7.46998 10.39 7.91998 9.74C8.23069 9.28072 8.47321 8.77884 8.63998 8.25C8.22228 8.06909 7.86641 7.77029 7.61597 7.39018C7.36553 7.01008 7.23139 6.56519 7.22998 6.11C7.23716 5.70781 7.34533 5.31387 7.54453 4.96439C7.74373 4.61492 8.02757 4.32112 8.36998 4.11C8.14948 3.79956 7.86099 3.54359 7.52651 3.36161C7.19203 3.17964 6.8204 3.07648 6.43998 3.06V3.05ZM11.44 1.25V11H13V7.64H15.09C15.5188 7.66406 15.948 7.59816 16.3498 7.44653C16.7517 7.2949 17.1174 7.06089 17.4234 6.75954C17.7295 6.45819 17.9692 6.09616 18.127 5.69669C18.2848 5.29723 18.3574 4.86917 18.34 4.44C18.3599 4.01448 18.2908 3.58947 18.1371 3.19219C17.9833 2.79491 17.7483 2.43412 17.4471 2.13289C17.1459 1.83167 16.7851 1.59666 16.3878 1.44291C15.9905 1.28915 15.5655 1.22004 15.14 1.24L11.44 1.25ZM13 2.52H14.7C14.9673 2.48203 15.2397 2.50435 15.4973 2.58532C15.7549 2.66629 15.9911 2.80386 16.1886 2.98795C16.3861 3.17204 16.5399 3.39799 16.6388 3.64924C16.7377 3.90049 16.7791 4.17067 16.76 4.44C16.7787 4.71098 16.7369 4.98273 16.6376 5.23555C16.5383 5.48836 16.3839 5.7159 16.1857 5.90164C15.9876 6.08739 15.7505 6.22668 15.4918 6.30942C15.2331 6.39216 14.9592 6.41627 14.69 6.38H13V2.52ZM21.06 11C21.5071 11.0108 21.9489 10.9014 22.3394 10.6833C22.7299 10.4652 23.0547 10.1464 23.28 9.76V9.76V11H24.68V6.13C24.68 4.72 23.56 3.82 21.83 3.82C20.1 3.82 19.07 4.74 19 6H20.36C20.4378 5.68894 20.6253 5.41645 20.8881 5.2327C21.1508 5.04895 21.4711 4.96631 21.79 5C22.71 5 23.23 5.44 23.23 6.23V6.76L21.34 6.88C19.59 6.98 18.64 7.7 18.64 8.95C18.65 9.24859 18.7223 9.54178 18.8525 9.81071C18.9826 10.0796 19.1676 10.3183 19.3956 10.5114C19.6235 10.7045 19.8894 10.8478 20.176 10.9319C20.4627 11.0161 20.7638 11.0393 21.06 11V11ZM21.46 9.85C20.66 9.85 20.15 9.46 20.15 8.85C20.15 8.24 20.64 7.85 21.58 7.85L23.26 7.74V8.29C23.2555 8.51614 23.2044 8.73891 23.1097 8.94432C23.015 9.14973 22.8789 9.33334 22.7098 9.48361C22.5408 9.63387 22.3425 9.74754 22.1274 9.81748C21.9123 9.88742 21.6851 9.91211 21.46 9.89V9.85ZM26.58 13.57C28.05 13.57 28.74 13.01 29.35 11.31L32 3.91H30.47L28.69 9.66L26.91 3.91H25.3L27.86 11L27.72 11.43C27.6688 11.7239 27.5109 11.9886 27.2765 12.1732C27.042 12.3578 26.7477 12.4492 26.45 12.43H26V13.6C26.193 13.6138 26.3866 13.6172 26.58 13.61V13.57Z" fill="black"/>
</svg>
