<svg width="40" height="40" viewBox="0 0 40 40" fill="none" xmlns="http://www.w3.org/2000/svg">
<path d="M24.9902 19.9998C24.9902 26.9042 19.397 32.4986 12.4951 32.4986C5.59318 32.4986 0 26.9029 0 19.9998C0 13.0966 5.59455 7.50098 12.4951 7.50098C19.3957 7.50098 24.9902 13.0966 24.9902 19.9998Z" fill="#E2574C"/>
<path d="M27.5014 7.50098C24.6991 7.50098 22.1193 8.43466 20.0345 9.99331L20.0446 9.99454C20.4546 10.3907 20.907 10.6695 21.2557 11.1256L18.6559 11.1669C18.2485 11.5781 17.8773 12.0256 17.5273 12.4906H22.1118C22.4605 12.9092 22.783 13.2731 23.0755 13.7354H16.6961C16.4624 14.1379 16.2462 14.5516 16.0575 14.9815H23.8018C24.0042 15.4102 24.1855 15.734 24.3393 16.1877H15.5988C15.46 16.619 15.3413 17.0601 15.2513 17.5101H24.7054C24.798 17.9426 24.8691 18.3424 24.9179 18.75H15.0637C15.0225 19.1612 15.0012 19.5787 15.0012 19.9999H24.9891C24.9891 20.4424 24.9578 20.8523 24.9128 21.2499H15.0637C15.1062 21.6736 15.1687 22.0898 15.2513 22.4998H24.6903C24.5929 22.9047 24.4803 23.3122 24.3391 23.7346H15.57C15.7024 24.1621 15.8638 24.577 16.0399 24.982H23.8018C23.5868 25.437 23.3431 25.8006 23.0744 26.2268H16.6738C16.9263 26.6643 17.205 27.0817 17.5074 27.4817L22.1119 27.5504C21.7195 28.0216 21.2158 28.3053 20.757 28.7178C20.7819 28.7378 20.0233 28.7153 18.5296 28.6916C20.8019 31.0364 23.9779 32.4987 27.5013 32.4987C34.4044 32.4987 40.0001 26.9029 40.0001 19.9999C40.0001 13.0969 34.4057 7.50098 27.5014 7.50098Z" fill="#F4B459"/>
</svg>
