<svg xmlns="http://www.w3.org/2000/svg" viewBox="0 0 331.75 444.84"><defs><style>.cls-1{fill:#ccbc9c;}</style></defs><g id="Слой_2" data-name="Слой 2"><g id="Слой_1-2" data-name="Слой 1"><path class="cls-1" d="M330.75,281.17c-.13-3.92-2.16-6.19-6.27-6.11-3.48.07-7,.22-10.44.36-6.63.27-13.18,2.43-19.83,1.27-5.88-1-11.72-2.28-17.68-2.81-3.46-.31-5-1.85-4.95-5.78.27-15.9-.76-31.78-.14-47.72,1.77-45.54-2-91.08-.77-136.63.62-22.81-1.31-45.51-1.82-68.26C268.68,8.31,267.69,3,260.71,0h-62c-1.51,2.37-3,4.79-4.54,7.11-3.47,5.09-8.53,8.85-11.7,14.23A331.08,331.08,0,0,1,157,58c-11.39,14.45-21.32,30-32,45.08-16.48,23.33-33.49,46.28-49.17,70.17-7.19,11-14.28,22-22.08,32.52C43.33,220,32.54,233.9,23.39,249c-5.78,9.51-10.59,19.66-18.18,28a11.62,11.62,0,0,0-3.32,8.48C2,298.24,1.2,311,0,323.75c-.24,2.63,1,2.87,3.08,3.29,7,1.41,14.18.73,21.23,1.53,11.76,1.34,23.46,2.23,35.21-.31a28.49,28.49,0,0,1,8.94-.1,211.75,211.75,0,0,0,23.33,1.71c16.24,0,32.45-1,48.73-.27,16.95.73,34,.19,50.94.19,8,0,16,0,24,0,2.06,0,4.18-.1,3.73,3.09-1.1,7.91-.5,15.85-.46,23.79.15,27.27.08,54.54.17,81.81a48.22,48.22,0,0,0,.82,6.38h46c6-4.83,6.32-11.36,6-18.39-.57-12.94-.85-25.9-1.81-38.82-.82-11,1-21.91.76-32.89-.18-7,.13-14-.08-21-.11-3.91,1.28-5,5.19-5.07,14.79-.1,29.59.85,44.39-.49,6.18-.56,11.69-5.37,11.59-11.64C331.55,304.77,331.15,293,330.75,281.17Zm-6.33,27.38c-1.69,1.8-3.08,2.21-5,.47a96.3,96.3,0,0,0-13.64-10.67c-2.78-1.76-2.17-3.18.37-4.57s5-3.06,7.78-4.29c10.45-4.73,13.69-2.91,13.78,8.91C328.38,301.78,327.37,305.38,324.42,308.55Zm1.77-29.46c-2.71,3.67-8.28,4-14.94.38A59,59,0,0,1,326.19,279.09Zm-13.54,6.48c-3.91,2.38-7.63,4.74-11.45,6.95a4.4,4.4,0,0,1-4.33,0c-4.31-2.38-8.57-4.85-13-7.35C291.61,280.4,305.79,280.57,312.65,285.57ZM281.54,278c1,.05,2.33.06,2.42,1.23.11,1.57-1.44,1.67-2.51,1.65-3.39-.07-7.36,1.56-10-3.4C275.35,277.67,278.45,277.81,281.54,278Zm-6.29,8.62a3.73,3.73,0,0,1,3.35-.09c4.37,2.36,8.78,4.65,13.11,7.09,1.51.85,2.94,2.17,1,3.87-4.87,4.22-10.27,7.82-14.68,12.58-.3.32-.87.38-1.51.65-.85-.72-1.75-1.41-2.57-2.19-4-3.74-7.44-8-12.44-10.56-3.24-1.67-2.73-3.38.25-5.2C266,290.16,270.65,288.45,275.25,286.61Zm-7.68-1c-6.54,3.48-13.27,6.67-19.09,11.39a8.49,8.49,0,0,1-1.56.82c-3,.23-7-6.25-5.45-9.07a67,67,0,0,1,13.15-16.06,3.12,3.12,0,0,1,1.77-.74c2-.13,11.73,8.22,12.52,10.16S269.17,284.72,267.57,285.57Zm-181.73-63c-.89,4.45-1.78,9-2.69,13.53a5.78,5.78,0,0,1-3.46,4.48c-4.35,2-8.58,4.26-12.92,6.27-1.78.82-3,.64-3.13-2-.28-5.77-.39-11.56-1.64-17.25-.36-1.65-.35-3.24,2-3.7,6.48-1.26,13-2.29,19.17-4.92C87,217.37,85.13,221.06,85.84,222.56ZM190.75,71c-.83,4.53-1.6,9.26-2.63,13.94a7,7,0,0,1-3.36,4.73c-3.7,2.18-7.33,4.45-11,6.74-2.57,1.62-4,1.56-4.48-2-.91-6.24.21-12.6-1.46-18.78-.4-1.47.44-2.42,2.11-2.69a88.34,88.34,0,0,0,18.12-5.06C191.53,66.48,190.49,69.18,190.75,71Zm49.73-39.23a5.32,5.32,0,0,1,1.91-1.49c1.05-.36,9.81,7.34,9.94,9a14.16,14.16,0,0,1-1.19,1.65,105.38,105.38,0,0,0-11,14c-1.46,2.27-2.83,2.52-4.27-.13a66.72,66.72,0,0,0-3.95-6.32,5.16,5.16,0,0,1,.37-6.87C235.44,38.62,237.52,34.83,240.48,31.73Zm.3-11.68c.66-.56,1.67-1.38,2.55-.31A1.77,1.77,0,0,1,243,22a19.84,19.84,0,0,0-4.6,7.71C237,24.84,238.26,22.19,240.78,20.05Zm26.08,43.61c2.35,8.88-4.7,12.09-9.85,16.45-1.43,1.21-2.45.22-3.39-.77a143.82,143.82,0,0,1-12.19-15.11,3.45,3.45,0,0,1-.17-4.18c3.7-5.89,7.31-11.85,12-17,1.45-1.59,2.81-2.32,4.53-.48a1.61,1.61,0,0,0,.39.31c7.81,3.56,10.54,9.56,8.6,17.82A11.84,11.84,0,0,0,266.86,63.66ZM259,124.41c-2.2,1.35-3.61,2.11-5.46-.08-4.27-5.07-8.59-10.11-12.87-15.16a3.37,3.37,0,0,1-.31-4.16c3.53-6.25,8.18-11.64,13-16.9a3.5,3.5,0,0,1,2.14-1.06c2.74-.17,11.24,8.43,11.24,11.24,0,2.66,0,5.31,0,9.46C268.39,114.12,266,120.1,259,124.41Zm8.82,31.3c2.38,8.4-3.79,11.86-9.1,15.73-2,1.5-3.8.41-5.16-1.32-3.49-4.45-7-8.87-10.37-13.4-1.54-2.07-2.47-4.45-.69-6.91,3.7-5.11,7.47-10.17,11.16-15.29,1.81-2.51,3.42-2.15,5.72-.4,8.24,6.25,8.31,6.16,8.41,18.61A11.4,11.4,0,0,0,267.81,155.71ZM269,268.28c-1.14,2.35,1.47,6.89-2.53,6.81-2.64,0-5.42-3.47-6.69-6.65-.42-1,5.68-6.7,7-6.34C270.37,263.07,267.94,266.27,269,268.28Zm-33-155.7c1-1.85,2.16-1,3.06.12,4,5.09,7.91,10.21,12.62,14.67,1.29,1.22,1.48,2.61.18,3.9-4.52,4.46-7.78,9.85-11.31,15-.83,1.23-2,2.27-3.08.58-3.53-5.44-5.5-11.59-8-17.24C231.55,123.6,233.05,117.82,236,112.58Zm-1-13.1c-2.88-4.52-4.7-9.47-6.62-14.41a3.34,3.34,0,0,1,0-2.88c2.34-4.38,4.64-8.79,7.07-13.12,1-1.77,2.4-3,4.22-.83,4,4.83,7.57,10,12.23,14.32a5.43,5.43,0,0,1,.75,1.55c-.56.7-1.12,1.49-1.77,2.19-3.93,4.23-8.43,8-11.22,13.19C238.2,102.07,236.64,102.16,234.93,99.48Zm-12.17,68c1.22-.27,1.57.9,1.87,1.82,1.66,5,1.62,9.79-1.52,14.13l-1.34-.22c0-4.41,0-8.83,0-13.25C221.79,169,221.5,167.72,222.76,167.45Zm-.17,47a13.9,13.9,0,0,1-.26,15.61C221.26,225.49,221.38,218.2,222.59,214.47Zm3.84-28.06c.28-.89.26-2.26,1.57-2.13.62.06,1.32,1,1.67,1.64,2,3.85,3.85,7.74,5.69,11.64a3.74,3.74,0,0,1-.14,3.84c-3,4-4.34,8.9-7.55,14.14C223.94,205.22,223.46,195.89,226.43,186.41ZM237.28,205c1-1.74,2.33-.84,3.2.27,4.07,5.18,7.4,11,12.36,15.46,1.37,1.24.78,2.86-.56,3.87-5.16,3.86-8.43,9.25-12,14.42-.74,1.08-1.73,2.79-2.88.86-3.3-5.53-6.49-11.16-7.77-17.8A93.43,93.43,0,0,1,237.28,205Zm.08-12.05a67,67,0,0,1-7.47-17.58,78.75,78.75,0,0,1,7.68-17c1.09-1.83,2-.33,2.67.42,4.17,4.95,8.25,10,12.36,15a2.52,2.52,0,0,1-.23,3.91c-4.66,4.33-8.14,9.62-11.89,14.69C239.6,193.59,238.34,194.67,237.36,193Zm-1.42-41.58c.76,1.4.13,2.42-.56,3.65-1.85,3.32-3.48,6.77-5.25,10.14-.42.82-.24,2.24-1.49,2.32-1.51.09-1.72-1.31-2-2.39-2.63-9.29-2.94-18.52,1-28.91C230.75,141.92,233.33,146.66,235.94,151.39Zm-13.86-13.91c-.77-4.56-1.6-8.81-1.29-13.19.06-.81,0-1.82,1.09-1.85.49,0,1.13.59,1.48,1.07C225.59,126.61,225,133.79,222.08,137.48ZM220.79,262.6c.05-.78-.15-1.75.88-2.09.78-.25,1.23.34,1.58.88,2.06,3.13,1.79,10.8-.9,14.62A38.61,38.61,0,0,1,220.79,262.6Zm6.68-33.42c3,5.73,5.47,10.48,7.85,15.3a2.71,2.71,0,0,1-.17,2.34c-2.61,3.69-4.07,7.93-6,12-.33.7-.58,1.64-1.6,1.71s-1.41-.77-1.68-1.53C222.37,249.19,223.08,239.67,227.47,229.18ZM226,278.64c.34-1.1.81-2.15,1.34-3.54,2,.92,2.24,2.54,2.84,3.82.5,1.09,2,2.29.73,3.49-1,.95-2.54.55-3.78,0C225.3,281.66,225.53,280.13,226,278.64Zm10.12-26.54a2.32,2.32,0,0,1,2.56-1.6,19.34,19.34,0,0,1,2.52,2.69,89.07,89.07,0,0,0,10.62,13.07c1.43,1.49,1.74,2.6.06,4.08-4.49,4-8,8.78-11.53,13.59-1.48,2-2.36,2-3.5,0A38.67,38.67,0,0,0,234,278.7C226.59,269.16,232,260.67,236.11,252.1Zm5.37-4.59c-.87-1.34-1.34-2.94-.28-4.2,4.6-5.41,7.61-12.06,13.14-16.75,1.75-1.49,3.08-1.82,4.4.35a2.73,2.73,0,0,0,.95,1.13c7.7,3.6,9.59,9.81,8,17.62a11.85,11.85,0,0,0,0,3c2.31,8.47-4.69,11.43-9.34,15.7-1.47,1.34-3.18.61-4.37-.8C249.62,258.35,245.16,253.23,241.48,247.51Zm25.43-19.07c-2.67-.18-5.85-2.81-7.1-6-.52-1.34,5.63-7,7.16-6.88s1.81,1.14,1.81,7.34C268,224.55,270.16,228.65,266.91,228.44Zm.76-25.9c2.38,8.45-4.14,11.7-9.2,15.74-1.78,1.42-3.58.52-4.75-1.08-4.11-5.6-8.1-11.28-12.14-16.93-.83-1.16-.42-2.14.3-3.17,4-5.68,7.79-11.5,12.64-16.53,1.74-1.8,2.94-1.67,5.06-.35,7.19,4.48,10.21,10.49,8.05,18.85A13.39,13.39,0,0,0,267.67,202.54ZM234.5,61.92c-1.29,5.24-4.76,9.94-7.46,15.23-5.1-9.25-4.48-20.39,1.72-28.27C229.91,54.24,235.65,57.24,234.5,61.92ZM224.11,93.29a3.49,3.49,0,0,1,1.48-1.78c1-.37,1.3.77,1.68,1.44q3.33,5.8,6.58,11.66c.31.56.82,1.36.64,1.8a141.61,141.61,0,0,1-6.42,14.39c-1.07,1.93-2.11-.31-2.53-1.33-2.08-5.11-3.42-10.38-2.85-15.58C222.51,100,222.59,96.53,224.11,93.29Zm-5.18-1.85c.37-5.08.63-9.1,1-13.11.06-.81.42-1.77,1.42-1.67s1.25,1,1.33,1.87C223.07,82.81,223.49,87.11,218.93,91.44Zm-.71,143.35a52.75,52.75,0,0,1-.23,16.87,51.29,51.29,0,0,0-.26,19.79c.92,5-1.45,6.36-6,6.5-5.2.16-10.27-.89-15.4-1-10.13-.19-20.26-.72-30.38.78-6.29.93-12.58-.76-18.85-1.35a98.27,98.27,0,0,0-19.92-.16c-6.5.69-12.92,1.12-19.33-.25-10.68-2.29-21.13.47-31.67,1.31-1.32.11-2.62.42-3.94.56-3.48.36-3.28-.88-2.08-3.67,5.07-11.81,14.06-20.46,23-29.09a25.7,25.7,0,0,0,7.31-11.65,37,37,0,0,1,7.24-13c4-4.92,8-9.83,10.69-15.56,6.46-13.66,16.49-24.78,25.45-36.69,4.76-6.34,7.64-14.29,13-19.94,11.57-12.16,18.79-27.41,29.73-39.85,8-9.11,14-19.32,19.42-30,2.85-5.58,7.45-9.63,12.73-14.85-1.25,8.13-2.07,15-3.44,21.83a22.87,22.87,0,0,0,.43,11.8,49.7,49.7,0,0,1,2,17.73,161.37,161.37,0,0,0,1.77,31.81c.88,5.62-.44,11.26-.65,16.88-.39,10.28-.83,20.59.68,30.88.95,6.45-.8,12.9-1.36,19.35A102.8,102.8,0,0,0,218.22,234.79Zm-24.75,45.48c-3.6,4.69-10.21,4.87-17.47,0Zm-46.54,0a14.39,14.39,0,0,1-16.72,0Zm-48,1.31c-4.91,1.37-9.82,2.38-14.55-.75a36.22,36.22,0,0,1,13.67-1.88c.78.06,1.78-.15,2.1.84S99.74,281.35,99,281.57ZM213.59,62.82c-.64-5.77,1.83-9.5,8.28-11.88C219.94,56.1,217,59.44,213.59,62.82Zm1.77-27.21c-.3,2.8-.63,5.59-.9,8.39-1,10.37-9.77,12.66-17,16.45-2.06,1.06-2.51-.5-2.61-2.24q-.47-8.93-1.05-17.85c-.15-2.25.24-3.79,2.89-4.29,5.2-1,10.38-2.09,15.5-3.41C215.1,31.9,215.78,33.07,215.36,35.61ZM194.43,67.36c.17-1.38.71-2.86,2.18-3,3.52-.4,5.94-2.9,8.92-4.3,1-.48,2.06-1.59,3.2-.82,1.54,1,.26,2.48,0,3.62-2.11,8.75-7.81,14.75-16.26,20.39C193.21,77.17,193.8,72.26,194.43,67.36Zm4.32,16.16c-2.78,6.14-5.16,10.93-9.24,15.15C189.23,92.17,191.16,88.87,198.75,83.52ZM169,103.07a1.66,1.66,0,0,1,.79-1.2c5.4-1.79,9.84-5.58,15.87-8.05-2.21,12.15-8.89,19.88-19.06,27C167.49,114,168.21,108.52,169,103.07Zm3.28,17.34c-1.12,5-6.62,12.56-10.78,15.39C161.86,128.54,167.09,125.13,172.26,120.41Zm-7.6-13.25c-.92,5-2,10-2.91,15.09a6.39,6.39,0,0,1-3.2,4.24c-3.93,2.46-8,4.71-12,7.11-3.41,2.06-4.85,1-4.73-2.81.06-2,0-4,0-6-.09-3.3,0-6.6-.82-9.88-.55-2.16-.53-4.67,2.51-4.92,6.38-.53,12.27-2.73,18.1-5.08C164.28,103.87,165.12,104.59,164.66,107.16Zm-22.49,33.51c.15-1,1.28-1.37,2.19-1.83,3.51-1.81,7-3.7,10.47-5.57.81-.43,1.59-1.59,2.53-.68a2.72,2.72,0,0,1,.31,2.31c-3,9.56-8.81,17-17.59,23C139.1,151.41,141.37,146.12,142.17,140.67Zm2.9,20c-4.06,4.61-5.67,10.1-10.69,13.28C134.53,167.12,139.08,161.33,145.07,160.68Zm-7.42-15.14c-1,4.86-2.1,9.7-3.11,14.56-.65,3.14-3.24,4.41-5.53,6.05a79.59,79.59,0,0,1-11.57,6.36c-1.92.27-2.14-1.21-2.26-2.2-.78-6.58.2-13.26-1.1-19.84-.31-1.61,1.47-2.12,2.74-2.33,6.11-1,11.87-3.09,17.62-5.21C137.25,141.89,138.22,142.73,137.65,145.54ZM115,178.86c0-.64.85-1.45,1.51-1.81,4.47-2.4,9-4.69,13.62-7.08.41,8.11-8.55,21.46-17.15,25.46C112.59,189.65,114.64,184.34,115,178.86Zm2.91,19.53c-1.63,5.28-5.09,8.91-8.25,12.83C109.24,204.69,111.7,201,117.87,198.39Zm-7.25-14.13c.31,12.15-5.26,20.42-16.17,25.42-3.19,1.46-4.81,1.82-4.75-2.58A80.2,80.2,0,0,0,88,190.33c-.5-2.53.54-3.75,2.9-4.22,5.38-1.08,10.47-3.07,15.6-5C110.76,179.59,111,179.85,110.62,184.26ZM89.74,217.59a2.82,2.82,0,0,1,1.91-2.12,48,48,0,0,0,10.61-6.41c1.8-1.46,2.71-.87,2.55,1.37-.5,7.14-8.82,22.34-17,23.79C88.43,228.58,89.07,223.08,89.74,217.59Zm4,20.76-10.16,8.54C84.12,242,86.85,239,93.7,238.35ZM62,265.88c.83-3.25.78-6.54.92-9.84a5.41,5.41,0,0,1,3.77-5.24c4.12-1.63,8.1-3.62,13.28-6-3,9.69-7.14,17.49-15.13,22.76-.65.42-1.56,1-2.16.81C61.4,268.05,61.73,266.74,62,265.88Zm4.48,5.81c-1.09,5.05-4.33,8.53-7.77,11.88C59,278.12,61.3,273.94,66.43,271.69ZM59.14,257.5a7.07,7.07,0,0,0-.22,2.46c1.44,12.89-6.74,18.73-16.89,23.18-1.64.72-3.09,1-3.05-1.38a58.18,58.18,0,0,0-2.51-18.16c-.64-2.16,1-2.7,2.41-3.08,5.91-1.63,11.87-3,17.59-5.32C58.39,254.44,59.85,254.81,59.14,257.5ZM53.86,281c.34.49.56.67.52.75-2.93,7,1.63,9.26,6.93,11.58,5.48,2.4,5.4,2.95.84,6.75-3.95,3.31-8,6.5-11.94,9.81-1.7,1.42-3.22,1.45-4.85-.06q-7.86-7.31-15.77-14.55c-1.72-1.56-1.81-2.81.56-3.52C38.56,289.22,46,284.43,53.86,281ZM61,289.33c-1.08-1.14-.17-1.76.4-2.49,2-2.58,4.21-4.37,7.92-4.16,5.43.33,10.94-.18,16.21,3.52-3.57,2-6.7,3.83-9.88,5.55C71.51,294,64.15,292.68,61,289.33Zm14.87,6.19c5.51-3.06,11-6.24,17.95-7.92,4.9,2.3,10.38,4.63,15.59,7.45,2.14,1.16.2,2.63-.89,3.43a126.31,126.31,0,0,0-14.63,12c-1.27,1.27-2.27.91-3.35-.24a65.34,65.34,0,0,0-14.2-11.62C75,297.78,74.23,296.43,75.87,295.52Zm25.81-8.3c-.72-.34-1.68-.72-1.48-1.72s1.31-1.35,2.26-1.67c9.52-3.31,18.79-2.47,29.05,1.8-5.59,2.93-10.09,5.29-14.6,7.64a2.7,2.7,0,0,1-2.85.17C110.25,290.73,105.84,289.22,101.68,287.22Zm20.37,7.49c5.3-2.7,10.42-5.79,16.62-6.91a93.4,93.4,0,0,1,17,7.69c1.75,1,.73,2.37-.35,3.2-5.22,4.05-10.94,7.45-15.48,12.37-1.26,1.37-2.87.66-3.86-.67-3.76-5-8.93-8.32-14.06-11.66C119.54,297.15,119.27,296.12,122.05,294.71Zm23.08-8.94c10.35-3.59,19.58-4.14,28.93-1.24.87.27,2.2.2,2.32,1.47s-1,1.58-1.89,2c-3.57,1.77-7.16,3.49-10.73,5.27a4.35,4.35,0,0,1-3.85.37C155.25,291.28,150.68,288.75,145.13,285.77Zm24.06,8.84c5.22-2.55,10.37-5.26,16.16-6.53a78.77,78.77,0,0,1,17.13,7.8c1.35.82.26,1.78-.44,2.36-5.09,4.25-10.23,8.45-15.36,12.66-1.49,1.23-2.72.74-3.88-.53-4.08-4.45-9.09-7.77-13.9-11.29C166.27,297.16,166.26,296,169.19,294.61Zm25.66-6.55c-.7-.35-1.78-.32-1.71-1.44.06-.93.87-1.36,1.66-1.61a46.14,46.14,0,0,1,14.63-2.34c2.45.26,4.92.42,7.35.84a3,3,0,0,1,2.68,2.56,3.2,3.2,0,0,1-1.73,3.32c-2.7,1.59-5.47,3.07-8.2,4.61-1.3.73-2.37.45-3.67-.28C202.26,291.72,198.53,289.93,194.85,288.06Zm18.8,7.68c5.41-3.62,11.66-5.48,16.8-7.83,2.43,0,4.27.3,4.82,1.68,1.43,3.52,4.36,5.82,6.48,8.75,1.22,1.69,1.31,3-.43,4.21-.27.19-.57.34-.84.53-3.3,2.23-5.34,7.43-9,7.29-3.11-.12-6-4.1-9.11-6.29-2.58-1.83-5.24-3.52-7.86-5.29C213.38,298,211.94,296.89,213.65,295.74Zm14.11,49.64c-5.84-6.95-5.36-18.27,1.07-24.68C237.46,329.44,234.48,337.57,227.76,345.38Zm.35,11.21c3.58-5.27,5.11-11.4,7.41-17.21.41-1.05,1-2.29,2.45-2,1.08.19,1.47,1.21,1.77,2.2,1.88,6.05,5.77,10.79,10.26,15,2.74,2.57,2.54,4.25-.14,6.75-3.73,3.49-7.62,6.92-10,11.66a3.94,3.94,0,0,1-2.93,2.53,5.85,5.85,0,0,1-1.09-.91c-3.78-5.14-6-11-7.89-17A1.27,1.27,0,0,1,228.11,356.59Zm7.83,29.91c.75-1.39,1.79-1.45,2.73-.28,4.24,5.3,8.37,10.68,13.27,15.41a2.26,2.26,0,0,1-.11,3.53c-4.52,4.45-7.77,9.85-11.3,15-.83,1.22-2,2.31-3.08.62-3.5-5.45-5.64-11.53-8-17.46C231.54,397.52,233.07,391.76,235.94,386.5Zm4.67-3.49a3.38,3.38,0,0,1-.23-4.16c3.54-6.25,8.2-11.63,13-16.88a3.39,3.39,0,0,1,2.16-1c2.8-.1,11.17,8.47,11.17,11.3v9.41c1.74,6.47-.83,12.36-7.78,16.69-2.24,1.39-3.65,2-5.46-.18C249.21,393.11,244.89,388.07,240.61,383Zm26.24-19.5c-3,.44-4.51-2.21-6.58-3.66-1.34-.94-2-2.22-.46-3.68a16.34,16.34,0,0,1,5.66-3.74c.9,3.18-.49,6.4,1.78,8.95C267.8,362,267.63,363.4,266.85,363.51Zm-.23-20.12c-.17,3.19-8.86,10.48-11.89,10a3.52,3.52,0,0,1-1.87-1.43c-3.75-5.08-7.47-10.17-11.12-15.32-1.12-1.57-1.59-3.33-.12-5.05,3.88-4.55,7.79-9.08,11.64-13.65,1.86-2.22,3.58-2.56,5.77-.3a71.61,71.61,0,0,0,6.06,5.18c1.8,1.47,2.89,3.2,2.54,5.65C266.56,333.41,266.89,338.42,266.62,343.39Zm-14.86-28.22c-3.78,4.16-7.54,8.32-11.34,12.46a8.48,8.48,0,0,1-1.34,1,2.19,2.19,0,0,1-2.17-1.36c-1.64-3.05-3.33-6.07-4.84-9.18a3.2,3.2,0,0,1,1-4c3.55-3,7.2-5.8,10.67-8.85,1.72-1.51,2.88-1.09,4.1.45,1.33,1.69,2.65,3.38,4,5A3,3,0,0,1,251.76,315.17ZM269,176.39c-1.07,2,1.33,4.81-1.58,6.13-1.28.58-7.51-5.42-7.4-6.81.1-1.21,6.31-6.92,7.29-6.39C270.41,171,268.06,174.05,269,176.39Zm-.24-46.64c-1,1.78,1.44,4.65-1.67,5.88-1.14.45-8.41-5.81-7.94-6.74,1.52-3.06,4.69-6.12,7.17-6.16C269.85,122.67,268.19,127.09,268.8,129.75ZM268,83.18c-.87,2.24,1.11,5.25-2,6.6-1.19.53-7-4.45-7.08-5.75s6.17-7.33,7.36-6.85C269.4,78.43,267,81.29,268,83.18Zm-1.3-51c.47,2.44.79,4.91,1.09,6.86-.37,2.1.67,4.32-1.21,5-1.62.62-3-1.11-4.16-2.2-1.47-1.43-4.77-2.5-3.81-4.62,1.15-2.55,3.81-4.52,6.06-6.45C265.66,30,266.49,31.2,266.68,32.21Zm-7-25.37c1.78-2,4.64.2,5,3.17a68.33,68.33,0,0,1,.06,7.83c3.34,7.68-3.85,11.14-8.19,16a2.38,2.38,0,0,1-2.59.92c-4.58-1.18-7.55-8-6.89-12.8C248.13,14,255.33,11.68,259.66,6.84ZM256.5,3.22c-4.75,5.57-8.95,10.74-16.72,12.14,0-2.46,0-4.43,0-6.4s-1.71-3.5-2.39-5.74Zm-29.77-.39c4.87-1.07,7.59,2.7,8.73,6.44,1.19,3.94,1.33,8.72-3.33,11.54-3,1.8-5.66,4.08-9,5.25-2.48.86-3.54.05-3.06-2.53A44.55,44.55,0,0,0,220,7.7C219.28,3.65,220.5,2.86,226.73,2.83Zm-7.7,31a5.11,5.11,0,0,1,3.33-4c3.65-1.47,7.26-3,10.92-4.52,1.23,8.76-8.35,20.82-16.08,22.23C217.81,42.9,218.32,38.36,219,33.85Zm-24.16-22.2c2-1.69,3.34-4.1,4.85-6.27,1.87-2.67,4.17-4.23,6.8-3.6,1.76.13,2.76.23,3.75.26,4.64.13,6.95,1.71,6.79,7.14-.14,4.76-.42,9.56-.28,14.34.09,3.09-1.05,4.89-4.34,5.56-5,1-9.95,2.55-14.94,3.75-3.16.75-4.87,0-6.05-3.71C189.32,22.4,189,16.69,194.87,11.65Zm-9.24,11.72c3.34,1.18,2.68,4.48,3.1,7.08.74,4.6-2.8,3.35-5.41,3.65-1.18-.74-3.71,1.32-4.07-1.67C179,30.58,184.43,23,185.63,23.37ZM168.73,48.6a28.57,28.57,0,0,0,6.75-8.55c1.44-2.67,11.84-4.22,14.15-2.4a3.34,3.34,0,0,1,1,2.68c.35,5.13.7,10.26,1.16,16.82.94,4.28-1.64,6.86-7.06,8.63-4.93,1.61-10.13,1.66-14.93,3.54-2.24.88-2.89-.7-3.57-2.32C163.47,60.38,162.23,54.07,168.73,48.6ZM158.44,60.74c1.75-1.66,2.78-1.49,3.35.89,2.32,9.56,3.55,9.91-9.52,9A21.39,21.39,0,0,1,158.44,60.74Zm-9.63,15.09c.73-1.49,13.44-2.3,14.74-1.3,1,.8,1.12,2,1.16,3.15.14,4.47,1.44,8.86,1.06,11.95,0,2.76-.13,4.11,0,5.41.47,3.76-1,5.64-4.75,6.8-5.52,1.74-10.86,4-16.6,5.07-2.81.51-5.1.24-4.78-3.53a1,1,0,0,0,0-.49C132.33,90.39,144.57,84.43,148.81,75.83ZM133.07,97.66c2.83,1.81,3.4,5.37,3.42,8.12,0,4.15-4.1,2.57-6.54,3.23-1.43-.44-3.62,1-4-1.66C125.71,105.63,132.09,97,133.07,97.66Zm-21.52,30.57a68.93,68.93,0,0,0,9.37-13.47c1.13-2.23,3.08-2.66,5.41-2.79,12.27-.67,12.34-.64,12.35,12v2.5c-.5,12.21,2.78,10.86-11.38,14.9-1.11.31-2.19.78-3.31,1.09-13.17,3.69-10,4.5-13.85-7.76A6.24,6.24,0,0,1,111.55,128.23ZM99.92,142.67a35,35,0,0,1,6.71-8.22c1.81,2.7,1.8,5.78,2.62,8.59.57,2-.6,2.71-2.32,3-1.47.23-2.94.53-4.42.7-1.3.14-2.85.6-3.76-.59C97.67,144.7,99.31,143.67,99.92,142.67Zm-12,19a9,9,0,0,0,2.66-3.55c2.67-9.14,10.43-8.22,17.34-8.93,2.12-.22,2.9,1.31,3,3.17.19,4.46,1.36,8.86,1,12.36,0,3-.08,5,0,7,.11,2.29-.76,3.86-2.93,4.63-5.75,2-11.52,4-17.27,6.11-3.66,1.31-5.1-.21-6.42-3.7C82.76,172.38,82.54,166.75,87.87,161.71Zm-14,18.61A9.43,9.43,0,0,1,75,178.67c1.6-1.62,2.16-5.19,4.43-4.85s2.07,3.8,2.78,5.92c1.49,4.47.77,5.07-5.84,5.25-1.22-.16-3.09.85-3.91-.7S73.1,181.56,73.87,180.32Zm-12.93,22c1.49-2,2.74-4.15,4.09-6.24,5-7.78,5.27-7.92,14.77-8.14,3.47-.77,4.61.91,5.24,4.74,1,5.95.1,12,1.4,17.84.44,2-.71,3-2.36,3.85a79.86,79.86,0,0,1-20.36,6.35,2.65,2.65,0,0,1-3-1.1C57.38,214.92,57.5,206.93,60.94,202.32Zm-6.81,9.33c2.56,1.9,2.45,5.18,3.16,7.9.55,2.14-2.22,3-8.36,2.94-1.69,0-2.88,0-2.81-1.71S53.33,211.05,54.13,211.65ZM32.58,241.27c1.61-1.9,3.44-3.83,4.33-6.07,3.27-8.28,9.9-10.12,17.8-10.16,2.71,0,3.9.82,4.15,3.61.35,4,1.13,7.9,1,11.92,0,1.66-.12,3.34,0,5,.27,3.08-.85,4.69-3.93,5.88-5.58,2.17-11.26,3.95-16.92,5.84-2.83,1-4.42.34-5.24-2.58a36.17,36.17,0,0,0-2.23-6.07A6.16,6.16,0,0,1,32.58,241.27Zm-5.21,8c3.07,1.72,2.68,5.35,3.61,8.19.58,1.79-3.07,3.4-7.53,3.42-1.43.09-2.73.07-2.56-2C21.08,256.62,26.32,248.67,27.37,249.27Zm-16,25.94c.48-.68,1.25-1.25,1.48-2,2.67-8.43,10-8.94,17-10.2,2.48-.44,3.42.89,3.77,2.84.89,5.05,1.62,10.13,2.42,15.19.36,4.26-1.54,5.85-5.57,7.41-6.85,2.65-12,1.52-16.67-3.83a3.37,3.37,0,0,0-.81-.57C7.47,280.58,7.47,280.57,11.33,275.21ZM4.77,305.57a128.63,128.63,0,0,1,1.61-20.16c4.38,4.51,9.81,5,14.12,7.77,1.1.69,2.69,1,2.86,2.5.19,1.66-1.4,2.12-2.57,2.59-4.89,2-8.43,5.75-12.45,8.91-.84.66-1.71,1.91-3,1.13C4.4,307.73,4.78,306.52,4.77,305.57Zm2.35,18.35c-1.48.26-3.23.32-3.29-1.86s-.46-4.21.52-6.54c2,1.43,2.34,3.7,3.43,5.43C8.45,322,9.41,323.51,7.12,323.92Zm24.48,1.86A44.66,44.66,0,0,0,18.76,325c-4.55.28-7.08-1.87-8.74-5.79-3.08-7.23-3.16-7.26,3.18-11.91,3.33-2.45,6.77-4.76,10.22-7,1.84-1.22,3.76-2.13,5.88-.28q6.56,5.7,13.23,11.26c2.34,2,2.88,3.78.37,6.12A49.33,49.33,0,0,0,38.09,323C36.42,325.14,34.4,326.31,31.6,325.78Zm14.64,1.35c-1.85-1.16-5,1.34-5.69-2.29-.24-1.24,6.05-7.73,6.93-7.25,2.86,1.58,5.49,4.6,5.35,7.2C52.67,328,48.53,326.19,46.24,327.13Zm31.55-1.35c-5.92-1.28-12.07-1-18.21-1-1.52,0-8.88-7.74-9-9.73-.16-2.76,2.45-3.67,4.15-5.06,4-3.27,8.08-6.36,12.12-9.53a5.11,5.11,0,0,1,6.86-.05c4.73,3.64,9.56,7.17,13.62,11.62.67.74,1.45,1.37,1.48,2.48C88.9,317.15,80.54,325.8,77.79,325.78ZM91.92,327c-2-.65-5.13,1.25-6.65-2-.5-1.06,5.68-7.14,7-7.14s6.34,5.79,6.36,7.2C98.69,326.75,98,327,91.92,327Zm22.91-1.14a14.35,14.35,0,0,0-3.47,0c-8.39,2.12-10.87-5.16-15.09-9.54-1.38-1.43-.37-3.2,1-4.32q7.76-6.18,15.63-12.23c1.38-1.06,3.18-1.58,4.61-.32,5.09,4.48,11.47,7.26,16.06,12.44,2,2.21,2.55,3.78-.38,5.4a1.75,1.75,0,0,0-.72.68C128.9,325.78,122.54,327.32,114.83,325.85Zm30.22-.94c-1.12,3.68-4.49,1.13-6.59,2.21-2.22-.8-5.09,1.08-6.51-1.88-.4-.83,5.12-7.21,6.08-7.3C139.52,317.8,145.51,323.42,145.05,324.91Zm16.51.9a13.39,13.39,0,0,0-3.47,0c-8.47,2.35-11.67-4.22-15.72-9.25-1.24-1.54-.59-3.18.8-4.42,5.34-4.74,11.45-8.42,17.3-12.46,1.18-.82,2.15-.34,3.16.37,5.68,4,11.5,7.79,16.53,12.65,1.83,1.77,1.54,3,.26,5.06C176,325.05,169.86,327.89,161.56,325.81Zm22.91,1.43c-2-1.15-6.11,1.37-6-1.91.12-2.81,3.12-6.8,6.32-6.77s6.27,4.14,6.2,6.84C191,328.76,186.7,326.11,184.47,327.24Zm30-1.35c-2.49,0-5,0-7.47,0V326c-1.5,0-3,0-4.49,0-5.48.08-12.14-4.69-13.73-9.88-.56-1.86.3-3.23,1.71-4.33,4.44-3.46,8.86-7,13.35-10.36,2.66-2,5.31-2.29,8.16,0,3.37,2.68,7,5,10.47,7.57a5.1,5.1,0,0,1,2.26,2.55C226.2,316.45,219.57,325.82,214.47,325.89Zm7.85,25.84c1.82,3.44,1.85,5.85,0,9.27A18,18,0,0,1,222.32,351.73Zm1.91,15.19c.21-.75.63-1.82,1.6-1.53.64.19,1.18,1,1.57,1.71,2.14,3.72,4.21,7.49,6.36,11.21.51.89,1.25,2,.66,2.75-3.25,4.38-4,10-7.36,15.64C222.29,386.31,221.43,376.8,224.23,366.92Zm-1.34,42.89V398c2.58,3.86,2.07,7.86,1.28,11.86Zm5.33,31.56c-1.46-.26-1.58-2-1.9-3.27-2.29-9-2.57-18,1.3-28,3.1,5.67,5.68,10.4,8.29,15.13.76,1.37.22,2.41-.49,3.66-1.79,3.16-3.32,6.49-5.08,9.67C229.77,439.59,230.12,441.7,228.22,441.37Zm8.1,1.6c-3.11.16-4-1-2.57-3.7s2.57-6.85,4.55-7.3c2.67-.61,4.29,3.41,6,5.81,1,1.45,2.77,2.45,2.79,5.15C243.28,442.93,239.79,442.79,236.32,443Zm25.69-.53c-3.69,1.38-7.92,1.91-11-1.79-2.85-3.45-5.56-7-8.21-10.63-1.35-1.84-1.94-4-.48-6,3.75-5.27,7.63-10.45,11.44-15.68,1.63-2.23,3.12-2.13,5.35-.48,8.48,6.27,8.54,6.18,8.72,18.48a51.68,51.68,0,0,0,.06,7.47C268.63,438.61,265.62,441.09,262,442.44Zm5.14-32.91c-1.14.46-8.43-5.77-8-6.72,1.5-3.08,4.69-6.11,7.16-6.17,3.53-.08,1.83,4.34,2.47,7C267.77,405.42,270.25,408.28,267.15,409.53Zm2.13-90c-1.77,1.21-3.44.11-4.9-1.17-5-4.36-9.95-8.76-13.88-14.18-.87-1.19-2.33-2.13-.73-3.75,1.41-1.42,2.91-3.4,5.06-2.27,6.78,3.56,12.15,9.06,18.11,13.75.45.36.59,1.13.84,1.64A11.44,11.44,0,0,1,269.28,319.56Zm8.55,6.62c-2.34-.93-6.49,1.25-6.44-2.63,0-2.41,2.53-6.47,5.45-6.14s6.15,3.84,6.4,6.81C283.52,327.6,279.57,325,277.83,326.18ZM308.65,325c-3,.08-6,0-9,0v0a7.35,7.35,0,0,0-2,0c-9,2.64-12.55-4.34-17-9.68-1.41-1.69-.25-2.81.91-3.76,4.87-4,9.8-7.94,14.72-11.88a3.4,3.4,0,0,1,4.18-.36c6,3.81,12.19,7.4,17.37,12.39a4.22,4.22,0,0,1,1.39,2C319.62,316,311.21,324.93,308.65,325Zm9.83.8c-1.18-.16-2.81-.52-1.94-1.95,1.73-2.88,3.24-6.38,6.87-7.16,1.24-.27,2.53,1.76,3,2.92C326.22,322.08,320.62,326.1,318.48,325.8Zm9.83-12.59a1.52,1.52,0,0,1-1.67,1.39,1.68,1.68,0,0,1,.09-3.36A1.7,1.7,0,0,1,328.31,313.21Z"/></g></g></svg>